<svg xmlns="http://www.w3.org/2000/svg" xmlns:xlink="http://www.w3.org/1999/xlink" width="29px" height="29px" viewBox="0 0 29 29" version="1.1">
    <!-- Generator: Sketch 46.2 (44496) - http://www.bohemiancoding.com/sketch -->
    <title>Shape</title>
    <desc>Created with Sketch.</desc>
    <defs/>
    <g id="Symbols" stroke="none" stroke-width="1" fill="none" fill-rule="evenodd">
        <g id="atoms/icons/magnifying-glass/large" fill="#7C98B6" style="&#10;    fill: #747474;&#10;">
            <path d="M28.4336281,25.6994133 L21.0494302,18.3156267 C22.401608,16.41864 23.2000773,14.1013467 23.2000773,11.6 C23.2000773,5.20376 17.9963,0 11.6000387,0 C5.20377735,0 0,5.20376 0,11.6 C0,17.99624 5.20377735,23.2 11.6000387,23.2 C14.1013937,23.2 16.4186947,22.4015333 18.3156877,21.04936 L25.6998857,28.4335333 C26.0768869,28.8113067 26.5722086,29 27.0667569,29 C27.5613052,29 28.0566269,28.8113067 28.4336281,28.43392 C29.1887906,27.67876 29.1887906,26.4545733 28.4336281,25.6994133 L28.4336281,25.6994133 Z M11.6000387,19.3333333 C7.32890443,19.3333333 3.86667956,15.87112 3.86667956,11.6 C3.86667956,7.32888 7.32890443,3.86666667 11.6000387,3.86666667 C15.8711729,3.86666667 19.3333978,7.32888 19.3333978,11.6 C19.3333978,15.87112 15.8711729,19.3333333 11.6000387,19.3333333 L11.6000387,19.3333333 Z" id="Shape"/>
        </g>
    </g>
</svg>